<svg width="27" height="27" viewBox="0 0 27 27" fill="none" xmlns="http://www.w3.org/2000/svg">
<path d="M23.6613 14.4868C23.4909 16.3309 22.7988 18.0882 21.666 19.5533C20.5333 21.0184 19.0067 22.1306 17.2649 22.7597C15.5232 23.3889 13.6383 23.5089 11.8307 23.1059C10.0232 22.7029 8.36785 21.7934 7.05835 20.4839C5.74885 19.1744 4.83937 17.519 4.43634 15.7115C4.0333 13.904 4.15338 12.0191 4.78252 10.2773C5.41166 8.53552 6.52384 7.00895 7.98892 5.8762C9.454 4.74345 11.2114 4.05138 13.0554 3.88097C11.9758 5.34159 11.4563 7.1412 11.5913 8.9525C11.7264 10.7638 12.5071 12.4664 13.7915 13.7508C15.0758 15.0351 16.7784 15.8158 18.5897 15.9509C20.401 16.086 22.2006 15.5664 23.6613 14.4868V14.4868Z" stroke="white" stroke-width="2" stroke-linecap="round" stroke-linejoin="round"/>
</svg>
